<svg xmlns="http://www.w3.org/2000/svg" width="236.944" height="121.885" viewBox="0 0 236.944 121.885">
  <g id="Group_10" data-name="Group 10" transform="translate(-160 -21.115)">
    <path id="Path_277" data-name="Path 277" d="M666.712,1153.57s2.994,14.156-31.9,15.147-54.624,2.4-72.971,18.746c9.569-5.989,34.492-10.369,63.8-9.77S673.291,1171.714,666.712,1153.57Z" transform="translate(-401.84 -1044.463)" fill="#a31e21"/>
    <path id="Path_278" data-name="Path 278" d="M801.94,941.72q.118,1.217.335,2.4a43.7,43.7,0,0,0,6.517,16.37h9.363a21.752,21.752,0,0,1,1.458-11.887Z" transform="translate(-599.65 -869.927)" fill="#d61d24"/>
    <path id="Path_279" data-name="Path 279" d="M868.825,720.786a63.641,63.641,0,0,1,14.211-5.265l-9.15-33.3c-13.724,4.676-23.413,12.2-29.435,20.569Z" transform="translate(-634.673 -656.134)" fill="#b31e23"/>
    <path id="Path_280" data-name="Path 280" d="M858.855,1062.15H850.7a44.459,44.459,0,0,0,17.473,13.786A26.6,26.6,0,0,1,858.855,1062.15Z" transform="translate(-639.822 -969.146)" fill="#ec1c24"/>
    <path id="Path_281" data-name="Path 281" d="M1023.71,658.272l9.21,33.494a76.869,76.869,0,0,1,18.457-1.735s20.194-28.812,25.115-34.39C1054.88,652.553,1037.4,654.031,1023.71,658.272Z" transform="translate(-782.359 -632.882)" fill="#a31e21"/>
    <path id="Path_282" data-name="Path 282" d="M807.6,808.68a37.7,37.7,0,0,0-6.464,20.713l18.91,7.366a27.84,27.84,0,0,1,9.974-10.02q.566-.352,1.136-.673Z" transform="translate(-598.987 -760.32)" fill="#c41e24"/>
    <path id="Path_283" data-name="Path 283" d="M720.788,903.916a29.671,29.671,0,0,1-14.055,1.661,21.122,21.122,0,0,1,11.464-4.051s.2-4.387,1.6-17.346c-29.309.6-45.118,13.944-43.664,26.117s11.364,20.527,11.364,20.527-7.875-.7-22.529.4c-30.624,2.29-40.874,23.327-40.874,23.327s10.376-10.76,57.228-11.158,30.9-22.131,30.9-22.131-14.4-5.663-15.007-6.041l-.352-.139.243.072a6.228,6.228,0,1,1,6.214.335l23.554,8.631Z" transform="translate(-453.125 -822.522)"/>
    <path id="Path_284" data-name="Path 284" d="M1031.067,1008.851a4.386,4.386,0,0,1,8.757-.352c0-.122.016-.245.016-.37a4.837,4.837,0,1,0-6.646,4.484A4.384,4.384,0,0,1,1031.067,1008.851Z" transform="translate(-787.678 -920.653)"/>
    <circle id="Ellipse_21" data-name="Ellipse 21" cx="2.542" cy="2.542" r="2.542" transform="translate(245.267 85.581)"/>
    <path id="Path_285" data-name="Path 285" d="M1251.785,998h8.861l.208.208v3.253a.465.465,0,0,1-.277.486h-6.3q-1.11.317-1.108,1.177v1.455q0,1.15,2.077,1.453a34.994,34.994,0,0,1,4.363,1.039,4.012,4.012,0,0,1,1.869,3.739v2.908a4.7,4.7,0,0,1-2.977,4.708l-1.731.352h-7.824a.722.722,0,0,1-.623-.414V1014.9l.416-.352.484.07h6.1q1.11-.222,1.108-1.108v-1.731a1.212,1.212,0,0,0-.9-1.247q-6.23-1.316-6.232-1.869a3.979,3.979,0,0,1-1.177-3.185V1002.5a4.468,4.468,0,0,1,2.839-4.227Z" transform="translate(-967.243 -916.294)" fill="#231f20"/>
    <path id="Path_286" data-name="Path 286" d="M1336.76,998h9.971a4.583,4.583,0,0,1,3.324,4.639V1007a4.244,4.244,0,0,1-1.108,3.255q-1.15,1.585-4.016,1.585h-2.841a.368.368,0,0,0-.416.416v6.165a.49.49,0,0,1-.484.352h-4.155c-.322,0-.484-.176-.484-.553V998.211Zm4.916,4.432v5.124l.276.277h2.008a.97.97,0,0,0,1.108-.761V1004.3l.07-1.316a1,1,0,0,0-1.108-.969h-1.937a.368.368,0,0,0-.417.419Z" transform="translate(-1040.097 -916.294)" fill="#231f20"/>
    <path id="Path_287" data-name="Path 287" d="M1430.255,998h7.269q.651,0,.831,2.29l3.6,18.21a.37.37,0,0,1-.416.277h-4.292q-.555,0-.692-1.661a13.246,13.246,0,0,0-.692-3.255h-3.947q-.261,0-.9,4.639l-.277.276h-4.711l-.208-.208q2.008-10.151,2.977-16.063l.9-4.227A.832.832,0,0,1,1430.255,998Zm1.8,11.977.069.069h2.631l.139-.139-1.316-7.339-.07-.069h-.069q-.32,0-.638,2.424a44.413,44.413,0,0,0-.75,5.055Z" transform="translate(-1113.644 -916.294)" fill="#231f20"/>
    <path id="Path_288" data-name="Path 288" d="M1530.21,998h9.418a5.166,5.166,0,0,1,2.908,1.8,5.324,5.324,0,0,1,.83,3.463v1.585q0,2.367-.83,3.116l-.278.352v.139a3.976,3.976,0,0,1,1.178,3.047v6.855a.589.589,0,0,1-.555.414h-3.875q-.555,0-.555-.622v-6.718q-.206-1.175-1.177-1.177h-1.937l-.276.276v7.479q0,.761-.555.761h-3.9q-.4,0-.553-.622L1530,998.211Zm4.847,4.227v4.085l.208.208h2.147q.818,0,1.037-1.245v-2.216a1.283,1.283,0,0,0-1.384-1.108h-1.732Z" transform="translate(-1199.474 -916.294)" fill="#231f20"/>
    <path id="Path_289" data-name="Path 289" d="M1619.365,998h13.087l.208.208-.014,3.253c-.046.37-.208.555-.484.555h-3.38a.428.428,0,0,0-.484.484v15.718c0,.37-.139.553-.416.553h-4.155q-.484,0-.484-.692v-15.787l-.388-.277h-3.281q-.692-.042-.692-.319v-3.213C1618.935,998.165,1619.1,998,1619.365,998Z" transform="translate(-1272.699 -916.294)" fill="#231f20"/>
    <path id="Path_290" data-name="Path 290" d="M1714.141,998h7.269q.652,0,.831,2.29l3.6,18.21a.37.37,0,0,1-.416.277h-4.292q-.555,0-.692-1.661a13.236,13.236,0,0,0-.692-3.255H1715.8q-.264,0-.9,4.639l-.277.276h-4.71l-.206-.208q2-10.151,2.977-16.063l.9-4.227A.832.832,0,0,1,1714.141,998Zm1.8,11.977.069.069h2.631l.137-.139-1.316-7.339-.069-.069h-.06q-.32,0-.637,2.424A44.745,44.745,0,0,0,1715.942,1009.977Z" transform="translate(-1347.531 -916.294)" fill="#231f20"/>
    <path id="Path_291" data-name="Path 291" d="M1814.141,998h6.647q.389.3,1.869,4.985l2.29,6.786h.208l-.014-11.23c.083-.361.176-.541.291-.541h4.708l.208.208v20.356l-.208.208H1823.7q-.444,0-.624-.969l-3.665-10.867h-.208v11.287c0,.37-.139.553-.416.553h-4.64l-.208-.208V998.211Z" transform="translate(-1433.402 -916.294)" fill="#231f20"/>
    <text id="Gym_Training" data-name="Gym &amp; Training" transform="translate(300 119)" font-size="13" font-family="Teko-Medium, Teko" font-weight="500" letter-spacing="0.081em"><tspan x="0" y="0">Gym &amp; Training</tspan></text>
  </g>
</svg>
