<svg xmlns="http://www.w3.org/2000/svg" width="191.372" height="98.442" viewBox="0 0 191.372 98.442">
  <g id="Group_11" data-name="Group 11" transform="translate(-160 -21.115)">
    <path id="Path_277" data-name="Path 277" d="M646.541,1153.57S648.96,1165,620.776,1165.8s-44.118,1.936-58.936,15.14c7.729-4.837,27.858-8.375,51.528-7.891S651.855,1168.224,646.541,1153.57Z" transform="translate(-401.84 -1061.387)" fill="#a31e21"/>
    <path id="Path_278" data-name="Path 278" d="M801.94,941.72q.1.983.27,1.94a35.3,35.3,0,0,0,5.264,13.221h7.562a17.57,17.57,0,0,1,1.178-9.6Z" transform="translate(-607.784 -879.674)" fill="#d61d24"/>
    <path id="Path_279" data-name="Path 279" d="M864.137,713.369a51.4,51.4,0,0,1,11.477-4.252l-7.39-26.9c-11.085,3.777-18.91,9.851-23.774,16.613Z" transform="translate(-644.246 -657.09)" fill="#b31e23"/>
    <path id="Path_280" data-name="Path 280" d="M857.286,1062.15H850.7a35.909,35.909,0,0,0,14.112,11.135A21.485,21.485,0,0,1,857.286,1062.15Z" transform="translate(-649.607 -982.972)" fill="#ec1c24"/>
    <path id="Path_281" data-name="Path 281" d="M1023.71,657.45l7.439,27.052a62.084,62.084,0,0,1,14.907-1.4s16.31-23.271,20.284-27.776C1048.885,652.831,1034.765,654.024,1023.71,657.45Z" transform="translate(-798.006 -632.882)" fill="#a31e21"/>
    <path id="Path_282" data-name="Path 282" d="M806.356,808.68a30.446,30.446,0,0,0-5.221,16.729l15.273,5.949a22.485,22.485,0,0,1,8.056-8.093q.457-.285.918-.543Z" transform="translate(-607.093 -765.56)" fill="#c41e24"/>
    <path id="Path_283" data-name="Path 283" d="M702.189,900.12a23.964,23.964,0,0,1-11.352,1.341,17.059,17.059,0,0,1,9.259-3.272s.161-3.544,1.289-14.009c-23.672.482-36.441,11.263-35.266,21.094s9.178,16.579,9.178,16.579a123.528,123.528,0,0,0-18.2.323c-24.734,1.849-33.012,18.841-33.012,18.841s8.38-8.69,46.221-9.012,24.959-17.875,24.959-17.875-11.63-4.574-12.12-4.879l-.285-.112.2.058a5.03,5.03,0,1,1,5.019.27l19.024,6.971Z" transform="translate(-455.234 -830.32)" fill="#fff"/>
    <path id="Path_284" data-name="Path 284" d="M1030.893,1007.782a3.542,3.542,0,0,1,7.073-.284c0-.1.013-.2.013-.3a3.906,3.906,0,1,0-5.367,3.622A3.54,3.54,0,0,1,1030.893,1007.782Z" transform="translate(-803.543 -932.486)"/>
    <circle id="Ellipse_21" data-name="Ellipse 21" cx="2.053" cy="2.053" r="2.053" transform="translate(228.867 73.182)"/>
    <path id="Path_285" data-name="Path 285" d="M1251.08,998h7.157l.168.168v2.627a.375.375,0,0,1-.223.393h-5.089q-.9.256-.895.95v1.175q0,.929,1.677,1.174a28.272,28.272,0,0,1,3.524.839,3.241,3.241,0,0,1,1.509,3.02v2.349a3.8,3.8,0,0,1-2.4,3.8l-1.4.285h-6.319a.583.583,0,0,1-.5-.334v-2.8l.336-.285.391.057h4.925q.9-.179.895-.895v-1.4a.979.979,0,0,0-.727-1.007q-5.032-1.063-5.033-1.509a3.214,3.214,0,0,1-.95-2.572v-2.405a3.609,3.609,0,0,1,2.293-3.414Z" transform="translate(-990.492 -927.948)" fill="#fff"/>
    <path id="Path_286" data-name="Path 286" d="M1336.719,998h8.053a3.7,3.7,0,0,1,2.685,3.747v3.522a3.428,3.428,0,0,1-.9,2.629,3.746,3.746,0,0,1-3.243,1.28h-2.294a.3.3,0,0,0-.336.336v4.979a.4.4,0,0,1-.391.285h-3.356c-.26,0-.391-.142-.391-.447v-16.16Zm3.971,3.579v4.138l.223.223h1.622a.784.784,0,0,0,.895-.615v-2.238l.057-1.063a.808.808,0,0,0-.895-.782h-1.565a.3.3,0,0,0-.337.339Z" transform="translate(-1066.342 -927.948)" fill="#fff"/>
    <path id="Path_287" data-name="Path 287" d="M1429.4,998h5.871q.526,0,.671,1.849l2.908,14.708a.3.3,0,0,1-.336.223h-3.467q-.448,0-.559-1.342a10.7,10.7,0,0,0-.559-2.629h-3.188q-.211,0-.727,3.747l-.223.223h-3.805l-.168-.168q1.622-8.2,2.4-12.974l.727-3.414A.671.671,0,0,1,1429.4,998Zm1.454,9.673.056.055h2.125l.112-.112-1.063-5.928-.057-.055h-.055q-.259,0-.515,1.957a35.87,35.87,0,0,0-.606,4.083Z" transform="translate(-1142.912 -927.948)" fill="#fff"/>
    <path id="Path_288" data-name="Path 288" d="M1530.169,998h7.606a4.172,4.172,0,0,1,2.349,1.454,4.3,4.3,0,0,1,.67,2.8v1.28a3.429,3.429,0,0,1-.67,2.517l-.225.284v.112a3.212,3.212,0,0,1,.952,2.461v5.537a.475.475,0,0,1-.448.334h-3.13q-.448,0-.448-.5v-5.426q-.166-.949-.95-.95h-1.565l-.223.223v6.04q0,.615-.448.615h-3.154q-.324,0-.447-.5l-.038-16.1Zm3.915,3.414v3.3l.168.168h1.734q.66,0,.838-1.006v-1.79a1.036,1.036,0,0,0-1.118-.895h-1.4Z" transform="translate(-1232.272 -927.948)" fill="#fff"/>
    <path id="Path_289" data-name="Path 289" d="M1619.271,998h10.57l.168.168L1630,1000.8c-.037.3-.168.448-.391.448h-2.73a.346.346,0,0,0-.391.391v12.7c0,.3-.112.447-.336.447h-3.356q-.391,0-.391-.559v-12.75l-.313-.223h-2.65q-.559-.034-.559-.257v-2.595C1618.924,998.134,1619.055,998,1619.271,998Z" transform="translate(-1308.508 -927.948)" fill="#fff"/>
    <path id="Path_290" data-name="Path 290" d="M1713.289,998h5.871q.526,0,.671,1.849l2.908,14.708a.3.3,0,0,1-.336.223h-3.467q-.448,0-.559-1.342a10.689,10.689,0,0,0-.559-2.629h-3.188q-.214,0-.727,3.747l-.223.223h-3.8l-.167-.168q1.619-8.2,2.4-12.974l.727-3.414A.672.672,0,0,1,1713.289,998Zm1.454,9.673.055.055h2.125l.111-.112-1.063-5.928-.055-.055h-.049q-.259,0-.515,1.957A36.122,36.122,0,0,0,1714.743,1007.673Z" transform="translate(-1386.417 -927.948)" fill="#fff"/>
    <path id="Path_291" data-name="Path 291" d="M1814.1,998h5.369a18.3,18.3,0,0,1,1.509,4.026l1.849,5.481H1823l-.011-9.07c.067-.292.142-.437.235-.437h3.8l.168.168v16.441l-.168.168h-5.2q-.359,0-.5-.782l-2.96-8.777h-.168v9.116c0,.3-.112.447-.336.447h-3.747l-.168-.168V998.171Z" transform="translate(-1475.819 -927.948)" fill="#fff"/>
    <text id="Gym_Training" data-name="Gym &amp; Training" transform="translate(273.073 99.866)" fill="#fff" font-size="10" font-family="Teko-Medium, Teko" font-weight="500" letter-spacing="0.081em"><tspan x="0" y="0">Gym &amp; Training</tspan></text>
  </g>
</svg>
