<?xml version="1.0" standalone="no"?>
<!DOCTYPE svg PUBLIC "-//W3C//DTD SVG 20010904//EN"
 "http://www.w3.org/TR/2001/REC-SVG-20010904/DTD/svg10.dtd">
<svg version="1.0" xmlns="http://www.w3.org/2000/svg"
 width="1072.000000pt" height="1072.000000pt" viewBox="0 0 1072.000000 1072.000000"
 preserveAspectRatio="xMidYMid meet">
<metadata>
Created by potrace 1.14, written by Peter Selinger 2001-2017
</metadata>
<g transform="translate(0.000000,1072.000000) scale(0.100000,-0.100000)"
fill="#000000" stroke="none">
<path d="M8579 10225 c-2 -1 -65 -6 -139 -9 -197 -10 -362 -22 -420 -31 -14
-2 -54 -7 -90 -10 -113 -11 -144 -15 -185 -21 -22 -3 -59 -6 -82 -7 -24 -1
-43 -6 -43 -10 0 -5 -8 -7 -17 -6 -10 1 -20 0 -23 -1 -5 -2 -17 -4 -110 -15
-30 -4 -59 -9 -64 -12 -5 -3 -23 -7 -40 -9 -41 -4 -61 -8 -181 -32 -55 -12
-115 -24 -134 -27 -19 -3 -38 -8 -43 -11 -5 -3 -19 -7 -31 -9 -12 -2 -51 -10
-87 -19 -36 -9 -75 -19 -87 -22 -12 -2 -34 -9 -48 -14 -14 -5 -25 -7 -25 -4 0
4 -6 1 -14 -5 -8 -6 -18 -11 -22 -10 -5 2 -29 -4 -54 -11 -25 -8 -47 -14 -50
-14 -3 -1 -24 -7 -46 -15 -46 -15 -46 -3 -9 -136 10 -33 19 -67 21 -75 2 -8
17 -64 34 -125 30 -107 44 -158 75 -270 8 -30 22 -81 31 -112 17 -63 17 -63
28 -108 4 -16 10 -37 13 -45 7 -18 13 -39 17 -60 1 -8 5 -22 8 -30 8 -20 60
-218 60 -225 -1 -2 5 -20 14 -40 8 -19 14 -38 14 -42 1 -12 19 -84 30 -120 6
-18 13 -40 15 -50 2 -10 15 -61 30 -113 14 -52 28 -102 30 -110 26 -97 101
-367 126 -455 11 -38 22 -79 24 -90 5 -26 11 -46 17 -65 6 -16 37 -124 42
-150 2 -8 9 -35 16 -60 7 -25 14 -52 16 -60 35 -135 43 -153 68 -144 14 5 67
15 84 16 6 1 12 4 12 7 0 4 12 6 26 6 15 -1 52 4 83 11 31 7 76 15 101 18 25
3 56 8 70 11 14 2 45 7 70 9 25 3 56 8 70 10 14 3 54 7 90 11 36 4 81 8 100
10 163 17 321 25 550 27 l195 1 125 180 c69 99 132 187 140 197 8 9 20 24 25
32 53 82 102 150 128 179 9 10 17 21 17 24 0 6 31 52 65 96 11 14 27 36 35 49
44 66 175 245 182 248 4 2 8 8 8 13 0 6 5 15 10 22 6 7 54 73 107 147 53 74
101 137 105 138 4 2 8 9 8 15 0 7 10 24 23 38 12 15 47 62 77 104 64 90 74
104 208 290 56 77 105 145 109 150 5 6 98 131 208 279 110 148 207 276 215
285 8 10 37 46 65 82 27 35 52 66 55 69 23 21 90 110 83 111 -4 0 -17 2 -28 4
-70 10 -135 17 -167 19 -21 0 -38 3 -38 6 0 3 -12 5 -27 6 -26 1 -127 11 -183
19 -30 4 -127 14 -190 20 -25 2 -70 7 -100 10 -53 6 -80 8 -295 20 -55 3 -120
8 -145 11 -50 6 -956 15 -961 9z"/>
<path d="M6265 9809 c-22 -10 -45 -18 -51 -18 -6 -1 -28 -8 -48 -16 -20 -8
-39 -16 -43 -16 -5 -1 -17 -6 -28 -12 -11 -6 -26 -10 -32 -9 -7 2 -13 -3 -13
-9 0 -7 -2 -10 -6 -7 -3 3 -71 -23 -152 -59 -81 -36 -160 -71 -177 -78 -16 -7
-34 -13 -39 -13 -5 0 -12 -4 -15 -9 -5 -7 -171 -95 -258 -137 -13 -6 -23 -15
-23 -19 0 -5 -4 -5 -10 -2 -5 3 -10 3 -10 -2 0 -4 -14 -14 -31 -22 -98 -43
-478 -304 -642 -441 -50 -41 -67 -56 -136 -118 -76 -68 -291 -280 -291 -287 0
-2 -15 -19 -32 -38 -98 -103 -248 -297 -241 -312 2 -5 40 -35 84 -65 44 -30
92 -65 107 -78 15 -12 45 -35 67 -50 22 -15 42 -29 45 -32 3 -3 57 -43 120
-89 63 -46 117 -88 118 -93 2 -4 8 -8 12 -8 11 0 173 -121 178 -132 2 -5 8 -8
13 -8 9 0 83 -53 99 -70 3 -3 88 -66 190 -140 102 -74 187 -138 188 -142 2 -4
9 -8 16 -8 6 0 18 -9 26 -20 8 -11 18 -20 23 -20 4 0 13 -5 20 -10 7 -6 46
-35 87 -66 41 -30 83 -61 92 -69 9 -7 29 -22 45 -32 15 -10 33 -22 40 -28 25
-21 40 -32 133 -99 52 -38 103 -77 113 -88 10 -10 24 -18 31 -18 8 0 16 -7 20
-15 3 -8 12 -15 21 -15 8 0 15 -3 15 -8 0 -4 8 -12 18 -19 16 -9 33 -4 100 28
45 21 86 39 92 39 5 0 10 5 10 10 0 6 5 10 11 10 5 0 34 11 62 24 29 13 63 27
77 31 14 4 30 11 35 15 13 11 147 62 163 63 6 0 12 5 12 10 0 6 3 7 7 4 3 -4
12 -2 20 4 7 6 13 9 13 6 0 -4 20 2 45 13 25 11 45 17 45 13 0 -3 6 0 13 6 8
6 22 12 33 14 10 2 26 7 34 10 37 14 155 49 260 77 63 17 116 33 118 34 3 4
-32 137 -63 241 -8 28 -17 60 -20 73 -8 34 -12 52 -34 125 -11 37 -17 67 -14
67 3 0 1 6 -5 13 -6 7 -13 24 -16 37 -8 42 -14 62 -41 160 -14 52 -42 154 -61
225 -19 72 -38 137 -41 145 -5 14 -11 36 -17 67 -1 7 -5 16 -9 19 -4 4 -7 17
-7 28 0 12 -7 40 -15 63 -8 22 -16 52 -19 65 -2 12 -13 55 -24 93 -11 39 -24
84 -28 100 -4 17 -8 32 -9 35 -1 3 -7 23 -13 45 -21 71 -54 190 -57 200 -9 44
-18 73 -26 91 -6 11 -9 24 -8 30 1 5 0 12 -1 17 -1 4 -3 10 -5 15 -1 4 -4 14
-8 22 -3 8 -8 26 -10 40 -3 14 -17 68 -32 120 -15 52 -28 102 -30 110 -2 8
-20 74 -41 145 -20 72 -37 135 -39 140 -19 85 -33 122 -48 122 -7 0 -30 -8
-52 -18z"/>
<path d="M3873 8035 c-7 -8 -13 -16 -13 -19 0 -3 -13 -25 -30 -49 -16 -25 -30
-50 -30 -56 0 -6 -4 -11 -10 -11 -5 0 -10 -6 -10 -14 0 -8 -3 -16 -8 -18 -11
-5 -134 -248 -125 -248 4 0 3 -4 -3 -8 -13 -8 -113 -257 -129 -322 -1 -3 -4
-12 -8 -20 -11 -29 -51 -178 -57 -212 -1 -4 -8 -34 -15 -65 -7 -32 -16 -76
-19 -98 -4 -23 -9 -52 -11 -65 -6 -28 -14 -86 -20 -145 -3 -22 -7 -95 -11
-161 -6 -119 -3 -134 26 -140 3 0 14 -4 25 -9 39 -15 251 -97 315 -121 36 -14
73 -29 82 -35 10 -5 25 -9 33 -9 8 0 15 -4 15 -8 0 -5 6 -9 13 -9 12 0 249
-90 314 -119 17 -8 34 -14 38 -14 4 0 21 -6 38 -14 18 -8 93 -37 167 -65 74
-29 144 -56 155 -60 25 -11 88 -35 95 -37 3 0 19 -7 35 -14 17 -7 35 -14 40
-16 32 -9 86 -31 91 -37 12 -11 34 -8 34 5 0 6 11 26 25 44 14 18 25 35 25 39
0 6 40 65 50 75 3 3 17 21 30 40 13 19 27 37 30 40 3 3 21 25 40 50 53 69 298
310 315 310 3 0 16 9 28 20 55 51 296 210 318 210 22 0 5 22 -48 62 -32 24
-59 46 -61 51 -2 4 -8 7 -13 7 -8 0 -51 31 -124 88 -5 4 -26 19 -45 32 -19 14
-37 27 -40 30 -3 3 -21 17 -40 30 -19 14 -44 32 -54 42 -11 10 -26 18 -33 18
-8 0 -11 5 -8 10 3 6 -1 10 -9 10 -9 0 -16 5 -16 10 0 6 -6 10 -12 10 -7 0
-27 13 -45 28 -17 15 -42 35 -55 44 -12 9 -81 60 -153 113 -71 53 -140 102
-152 108 -13 5 -23 14 -23 18 0 4 -25 23 -54 43 -30 20 -61 42 -68 49 -7 7
-35 28 -63 47 -27 18 -52 36 -55 40 -3 3 -21 17 -40 30 -19 14 -39 28 -45 33
-5 4 -44 32 -85 63 -41 30 -82 61 -90 67 -8 7 -39 29 -69 51 -30 21 -59 43
-65 48 -6 4 -58 43 -116 85 -58 43 -106 81 -108 85 -2 4 -9 8 -16 8 -7 0 -21
9 -31 20 -21 23 -26 24 -42 5z"/>
<path d="M8286 6983 c-1 -1 -51 -5 -111 -9 -115 -7 -170 -11 -170 -14 0 0 -27
-3 -60 -5 -58 -4 -99 -8 -175 -20 -19 -2 -54 -7 -77 -10 -105 -13 -108 -13
-458 -80 -62 -12 -308 -75 -319 -83 -6 -3 -17 -7 -26 -7 -15 -2 -172 -50 -200
-62 -8 -3 -17 -7 -20 -8 -20 -5 -117 -39 -125 -44 -5 -3 -12 -6 -15 -7 -5 -1
-8 -2 -105 -41 -99 -41 -289 -133 -296 -144 -3 -6 -9 -10 -13 -9 -11 2 -66
-24 -66 -32 0 -5 -5 -8 -10 -8 -20 0 -292 -176 -346 -225 -7 -5 -29 -23 -49
-40 -101 -81 -203 -182 -295 -291 -40 -47 -100 -133 -100 -144 0 -6 -4 -10 -9
-10 -18 0 -123 -213 -157 -319 -41 -132 -52 -212 -50 -361 2 -80 6 -161 10
-180 23 -123 35 -172 62 -265 10 -33 19 -62 19 -65 3 -20 40 -117 48 -127 5
-7 6 -13 1 -13 -4 0 -3 -5 4 -12 7 -7 12 -20 12 -30 0 -10 4 -18 10 -18 5 0 9
-3 8 -7 -3 -18 105 -241 142 -294 11 -15 20 -30 20 -34 0 -7 127 -201 145
-221 6 -7 19 -24 30 -40 72 -101 213 -262 313 -359 39 -39 72 -73 72 -77 0 -3
-15 -4 -32 -1 -18 2 -104 5 -191 7 -87 2 -160 6 -163 9 -3 3 -19 1 -35 -3 -18
-5 -29 -5 -29 1 0 6 -6 6 -18 0 -11 -6 -24 -6 -35 0 -9 6 -17 6 -17 2 0 -4
-26 -7 -57 -5 -32 1 -64 2 -70 2 -7 0 -19 0 -25 0 -7 0 -24 1 -38 3 -14 2 -29
1 -33 -1 -5 -2 -93 -6 -195 -8 -103 -2 -230 -6 -282 -8 -52 -3 -149 -8 -215
-12 -66 -3 -138 -8 -160 -10 -22 -2 -80 -6 -128 -8 -48 -3 -104 -7 -125 -10
-20 -3 -66 -8 -102 -11 -80 -8 -134 -14 -169 -19 -14 -3 -46 -8 -71 -11 -25
-4 -54 -9 -65 -11 -10 -2 -37 -6 -59 -10 -22 -3 -43 -7 -46 -9 -3 -1 -27 -6
-54 -9 -27 -4 -54 -10 -59 -13 -5 -3 -21 -7 -36 -8 -27 -3 -144 -31 -171 -42
-8 -3 -24 -7 -35 -8 -35 -5 -54 -11 -61 -18 -4 -4 -15 -7 -24 -7 -9 0 -70 -18
-136 -41 -65 -22 -123 -41 -129 -43 -54 -14 -95 -31 -95 -38 0 -4 -3 -7 -7 -6
-5 1 -24 -4 -43 -11 -19 -8 -37 -15 -40 -16 -49 -18 -135 -57 -202 -90 -38
-19 -68 -31 -68 -28 0 3 -8 -1 -17 -9 -10 -8 -36 -23 -58 -34 -45 -22 -175
-95 -220 -124 -16 -11 -37 -23 -45 -27 -15 -8 -156 -101 -175 -115 -5 -5 -46
-35 -90 -68 -75 -56 -123 -94 -165 -130 -110 -95 -149 -130 -244 -226 -114
-114 -125 -126 -210 -229 -28 -33 -54 -61 -58 -63 -4 -2 -8 -10 -8 -18 0 -8
-3 -14 -7 -14 -5 0 -21 -20 -38 -45 -16 -24 -33 -45 -37 -45 -5 0 -8 -6 -8
-14 0 -7 -7 -19 -16 -27 -8 -7 -24 -29 -35 -48 -11 -20 -35 -61 -54 -91 -19
-30 -35 -59 -35 -63 0 -5 17 5 38 21 123 97 325 203 569 298 65 26 122 47 128
49 5 1 17 5 25 8 31 13 170 57 290 92 120 35 138 40 178 49 9 2 35 9 57 14 22
6 51 13 65 16 14 3 52 12 84 20 33 8 63 13 68 10 4 -3 8 -1 8 3 0 5 11 10 25
11 47 3 55 5 55 14 0 5 4 7 8 4 4 -2 50 4 102 14 138 27 151 30 190 36 19 3
42 7 50 9 8 2 38 7 65 11 28 3 59 8 70 10 39 8 71 13 120 19 96 12 165 21 214
30 14 2 51 6 81 10 30 3 73 8 95 11 22 3 60 7 85 9 25 2 63 6 85 9 22 3 74 8
115 11 41 4 93 8 115 11 22 2 67 6 99 9 33 4 63 8 68 11 4 3 8 0 8 -6 0 -6 4
-9 9 -6 14 9 67 15 186 21 61 3 137 8 170 10 190 13 427 21 850 30 539 10 767
19 787 31 4 3 8 0 8 -6 0 -6 5 -8 11 -4 12 7 46 11 154 19 39 2 86 7 105 10
19 3 58 7 85 10 28 2 68 7 90 10 22 4 51 8 65 10 89 12 108 15 130 20 14 3 41
8 60 10 41 6 75 13 75 15 0 1 9 3 20 5 44 6 89 16 197 45 62 17 122 32 132 35
11 2 49 16 85 29 36 14 78 28 94 32 15 3 30 10 33 15 3 5 14 9 25 9 10 0 19 4
19 8 0 5 6 9 13 9 15 0 171 77 208 103 15 11 30 20 33 20 3 0 14 6 23 14 10 8
46 36 80 61 162 120 285 310 319 490 10 54 13 267 4 280 -4 6 -10 26 -13 45
-10 69 -19 105 -28 116 -5 6 -6 14 -2 17 3 4 1 7 -5 7 -6 0 -9 6 -7 13 3 7
-25 73 -62 147 l-68 135 -65 31 c-36 17 -68 30 -72 28 -4 -3 -9 0 -13 6 -3 5
-15 10 -26 10 -10 0 -19 5 -19 11 0 5 -5 7 -10 4 -6 -4 -16 -3 -23 2 -7 6 -28
16 -47 23 -19 7 -48 19 -65 25 -16 7 -73 30 -125 50 -52 20 -108 43 -125 50
-16 7 -106 43 -200 80 -93 37 -186 74 -205 82 -19 8 -44 19 -55 23 -11 4 -33
13 -50 21 -16 7 -33 12 -37 11 -5 -1 -8 3 -8 9 0 5 -3 8 -7 6 -22 -13 -203
125 -203 154 0 4 -6 14 -12 21 -15 15 -47 81 -60 123 -42 137 -21 292 58 416
32 51 110 129 150 149 16 8 31 17 34 20 10 10 56 31 78 35 12 2 27 7 34 11 34
21 270 7 288 -16 3 -4 16 -10 30 -13 56 -14 210 -141 210 -173 0 -8 4 -14 8
-14 9 0 49 -83 54 -110 2 -8 6 -17 10 -20 7 -5 20 -108 19 -150 0 -41 -12
-103 -22 -123 -7 -12 -12 -23 -11 -24 4 -8 -12 -63 -18 -63 -4 0 -13 -14 -21
-32 -15 -38 -137 -163 -168 -173 -26 -8 -23 -29 5 -33 20 -4 216 -74 269 -97
17 -7 48 -18 70 -25 22 -7 45 -15 50 -19 6 -3 15 -6 20 -7 6 -1 34 -11 63 -23
28 -11 52 -18 52 -15 0 4 6 2 13 -4 7 -6 45 -22 83 -36 149 -52 294 -105 313
-115 11 -6 24 -10 28 -10 4 1 22 -3 38 -10 17 -7 30 -11 30 -10 0 1 11 -4 25
-11 14 -8 30 -15 36 -16 12 -2 335 -120 369 -134 11 -5 72 -27 135 -50 63 -22
122 -43 130 -47 8 -3 17 -7 20 -7 3 -1 11 -5 18 -9 6 -5 12 -6 12 -2 0 3 13
-1 29 -9 16 -9 31 -13 34 -10 5 5 -3 39 -20 84 -3 8 -8 23 -10 34 -2 10 -12
46 -24 80 -11 33 -22 68 -24 76 -1 8 -24 83 -49 167 -25 83 -46 158 -46 167 0
9 -4 16 -8 16 -4 0 -9 12 -10 26 -1 15 -6 32 -11 38 -5 6 -9 14 -9 19 -1 16
-15 73 -25 97 -5 14 -12 36 -14 50 -2 14 -8 27 -14 28 -5 2 -7 7 -5 11 3 4
-17 77 -44 163 -26 87 -45 160 -42 163 3 3 0 5 -7 5 -7 0 -11 6 -8 14 3 8 3
17 -1 21 -4 4 -7 10 -8 13 0 4 -4 14 -7 22 -4 8 -8 24 -10 35 -2 11 -6 27 -9
35 -3 8 -10 31 -15 50 -59 198 -55 190 -80 186 -12 -3 -27 -7 -33 -11 -7 -5
-186 -60 -205 -64 -3 -1 -6 -1 -7 -2 -2 0 -10 -2 -18 -4 -8 -1 -50 -10 -93
-19 -44 -9 -83 -14 -87 -11 -5 3 -11 1 -14 -4 -3 -4 -20 -9 -38 -9 -18 0 -35
-1 -38 -2 -44 -16 -501 -17 -558 -1 -18 5 211 149 248 156 3 0 19 8 35 17 51
26 265 100 330 113 57 11 150 27 185 31 19 2 47 5 63 7 15 3 27 -1 27 -6 0 -7
3 -7 9 -2 5 6 12 57 16 115 3 58 8 121 10 140 2 19 6 71 10 115 3 44 8 100 10
125 3 25 7 74 10 110 2 36 5 65 6 65 1 0 3 20 5 45 2 25 6 65 9 90 2 25 7 72
10 105 3 33 7 76 9 95 2 19 7 64 10 100 4 36 9 85 12 110 3 25 8 63 10 85 2
22 5 51 6 65 l3 25 -118 0 c-65 0 -119 -1 -121 -2z"/>
<path d="M3385 6142 c3 -20 7 -53 8 -72 2 -19 5 -40 9 -45 3 -6 4 -20 3 -32
-1 -13 2 -23 7 -23 5 0 7 -4 4 -8 -2 -4 2 -37 10 -72 8 -36 17 -78 20 -95 22
-116 123 -422 191 -575 46 -104 177 -360 209 -407 10 -15 19 -30 19 -33 1 -9
38 -64 58 -87 15 -16 24 -20 37 -13 11 6 21 5 28 -2 9 -9 12 -9 12 0 0 9 5 10
19 3 10 -6 20 -8 23 -6 5 5 65 7 98 2 14 -2 33 1 43 5 10 5 25 4 36 -2 14 -7
22 -7 26 0 5 8 11 8 20 0 10 -8 19 -8 34 0 15 7 27 8 40 0 14 -7 22 -7 26 0 5
8 11 8 20 0 10 -8 19 -8 34 0 15 7 27 8 40 0 14 -7 22 -7 26 0 5 8 11 8 20 0
10 -8 19 -8 34 0 15 7 27 8 40 0 14 -7 22 -7 26 0 5 8 11 7 20 0 11 -9 19 -8
35 3 11 7 18 16 15 18 -8 8 -19 161 -19 259 0 89 9 208 19 261 3 13 8 40 11
59 14 77 62 250 75 265 4 6 10 23 13 38 2 15 7 31 10 36 7 11 -18 33 -27 24
-4 -3 -7 -2 -7 3 0 5 -9 10 -20 11 -11 1 -35 9 -52 17 -17 9 -37 16 -45 16 -7
0 -13 4 -13 8 0 5 -6 9 -13 9 -7 0 -56 17 -108 37 -113 45 -152 60 -159 62 -3
0 -16 5 -30 11 -21 10 -51 21 -70 28 -3 1 -14 5 -25 10 -67 27 -322 127 -330
129 -5 2 -23 8 -40 15 -16 7 -32 13 -35 13 -3 1 -21 8 -40 16 -51 21 -74 30
-80 29 -3 0 -16 6 -30 13 -14 8 -29 15 -35 16 -5 1 -46 16 -90 34 -44 18 -97
38 -118 46 l-37 13 5 -37z"/>
<path d="M6917 5308 c-7 -4 -21 -8 -33 -8 -12 0 -42 -11 -68 -25 -25 -13 -46
-22 -46 -19 0 19 -112 -110 -134 -155 -34 -67 -37 -79 -40 -166 -3 -92 40
-220 82 -245 9 -5 13 -10 9 -10 -12 0 60 -64 96 -85 28 -16 26 -12 -13 26
-116 113 -137 290 -51 430 43 71 126 135 197 153 128 33 277 -8 357 -98 40
-45 74 -113 76 -153 1 -7 5 -13 10 -13 8 0 7 18 -4 75 -19 95 -108 209 -199
255 -27 14 -52 25 -55 26 -3 0 -22 4 -41 8 -45 11 -129 13 -143 4z"/>
<path d="M6964 5069 c-3 -5 -9 -7 -13 -4 -16 9 -91 -55 -111 -96 -70 -136 22
-290 175 -294 119 -3 207 88 201 210 -4 109 -80 184 -192 190 -29 2 -56 -1
-60 -6z"/>
<path d="M4075 4480 c-11 -17 333 -390 470 -510 47 -41 191 -157 226 -183 108
-78 152 -108 204 -141 119 -74 168 -103 179 -104 5 0 12 -4 15 -9 12 -16 253
-135 259 -127 4 3 1 9 -5 11 -24 9 -191 169 -258 248 -27 32 -58 67 -67 77
-10 10 -18 20 -18 23 0 3 -4 11 -10 18 -47 57 -60 76 -60 86 0 6 -4 11 -10 11
-5 0 -10 5 -10 11 0 6 -6 17 -12 24 -29 32 -38 45 -33 45 3 0 -6 17 -19 38
-50 80 -172 342 -159 342 3 0 0 7 -7 15 -7 8 -9 15 -5 15 4 0 3 6 -3 13 -6 7
-13 25 -16 40 -12 67 17 62 -337 62 -176 0 -322 -2 -324 -5z"/>
<path d="M8385 3117 c1 -89 -60 -280 -107 -333 -10 -11 -18 -26 -18 -32 0 -7
-4 -12 -8 -12 -4 0 -15 -12 -24 -27 -34 -57 -189 -197 -293 -264 -143 -92
-417 -212 -580 -253 -5 -2 -17 -6 -25 -9 -26 -10 -105 -31 -112 -29 -4 1 -19
-3 -33 -8 -14 -5 -37 -12 -52 -15 -23 -4 -52 -9 -153 -30 -71 -15 -119 -24
-160 -30 -25 -3 -57 -8 -71 -10 -14 -3 -43 -7 -65 -10 -21 -2 -55 -7 -74 -9
-19 -3 -57 -8 -85 -11 -27 -3 -68 -7 -90 -10 -72 -8 -202 -17 -440 -30 -49 -3
-163 -7 -253 -9 -90 -2 -166 -6 -169 -9 -3 -3 -15 -2 -28 3 -13 5 -26 6 -29 3
-3 -4 -59 -8 -124 -9 -130 -4 -337 -11 -512 -19 -63 -3 -173 -7 -245 -10 -71
-2 -130 -5 -130 -6 0 0 -34 -3 -75 -4 -87 -4 -252 -14 -325 -20 -27 -2 -86 -6
-130 -9 -101 -7 -220 -16 -265 -22 -19 -2 -69 -6 -110 -9 -41 -3 -86 -7 -100
-10 -22 -3 -95 -11 -180 -20 -14 -1 -50 -6 -80 -10 -30 -4 -66 -9 -80 -10 -14
-2 -43 -6 -66 -9 -23 -4 -59 -8 -80 -11 -21 -2 -63 -9 -93 -15 -30 -5 -56 -8
-59 -5 -3 3 -11 0 -19 -6 -7 -6 -13 -9 -13 -7 0 3 -21 1 -47 -4 -27 -5 -60
-11 -75 -13 -15 -2 -55 -9 -90 -16 -35 -6 -72 -13 -83 -15 -11 -1 -22 -3 -25
-5 -3 -1 -9 -3 -15 -4 -78 -14 -135 -29 -135 -36 0 -5 -6 -6 -13 -3 -11 4
-145 -27 -307 -71 -145 -39 -419 -131 -525 -175 -162 -68 -216 -90 -225 -90
-5 0 -10 -5 -10 -12 0 -6 -3 -9 -6 -6 -3 4 -50 -16 -105 -43 -54 -27 -101 -48
-103 -46 -2 1 -12 -5 -22 -13 -11 -8 -41 -26 -69 -40 -27 -14 -52 -28 -53 -32
-2 -5 -8 -8 -13 -8 -22 0 -362 -216 -476 -302 -32 -24 -69 -51 -83 -60 -14 -9
-35 -24 -47 -34 -28 -24 -47 -40 -108 -89 -27 -22 -60 -50 -72 -63 -13 -13
-23 -20 -23 -17 0 3 -12 -5 -27 -19 -15 -14 -24 -29 -19 -33 4 -4 10 -3 14 3
4 6 30 21 57 34 28 13 53 28 56 33 3 5 9 9 12 8 6 0 63 23 142 59 62 28 239
93 253 93 6 0 12 5 12 10 0 6 3 8 6 4 4 -3 23 0 43 8 31 12 195 64 226 71 6 1
91 24 190 49 182 47 196 50 250 61 45 9 60 12 60 14 0 1 11 3 25 5 14 2 36 6
50 9 39 9 73 16 100 21 14 3 48 9 75 15 28 5 66 12 85 15 19 3 46 7 60 10 14
3 39 7 55 10 17 3 40 7 51 9 65 13 426 66 484 71 25 2 45 5 45 5 0 3 90 12
132 14 24 0 43 3 43 6 0 6 37 10 122 13 32 1 58 4 58 7 0 3 15 6 32 7 18 0 60
3 93 6 33 4 89 9 125 12 36 3 90 8 120 10 30 3 96 8 145 11 50 3 115 7 145 9
30 3 107 7 170 10 63 4 147 8 185 10 170 10 605 18 890 18 737 -2 1047 -1
1150 3 172 6 275 12 340 18 33 3 94 8 135 11 41 3 89 8 105 10 17 2 57 6 90
10 33 3 78 8 100 12 22 3 56 8 75 9 19 1 35 3 35 4 0 2 25 7 75 13 25 4 59 9
75 13 17 3 44 7 60 9 17 1 30 4 30 5 0 3 34 10 120 25 22 4 43 9 46 11 3 2 21
6 40 9 140 25 494 146 633 217 23 12 43 21 46 21 3 0 23 12 45 27 22 15 43 28
48 28 4 1 49 30 99 64 94 64 272 233 283 268 4 11 11 20 16 20 5 0 9 7 9 15 0
8 5 15 10 15 6 0 10 6 10 14 0 8 4 16 8 18 20 8 122 248 106 248 -4 0 -2 6 3
13 6 6 10 19 10 27 0 8 4 35 8 60 15 83 9 311 -10 400 -3 14 -7 39 -10 55 -2
17 -11 49 -19 73 -8 23 -15 45 -15 47 1 16 -15 72 -25 87 -10 14 -12 8 -11
-35z"/>
</g>
</svg>
